<!DOCTYPE svg PUBLIC "-//W3C//DTD SVG 1.1//EN" "http://www.w3.org/Graphics/SVG/1.1/DTD/svg11.dtd">
<!-- Uploaded to: SVG Repo, www.svgrepo.com, Transformed by: SVG Repo Mixer Tools -->
<svg fill="#ffffff" height="800px" width="800px" version="1.1" id="Layer_1" xmlns="http://www.w3.org/2000/svg" xmlns:xlink="http://www.w3.org/1999/xlink" viewBox="0 0 325.611 325.611" xml:space="preserve" stroke="#ffffff">
<g id="SVGRepo_bgCarrier" stroke-width="0"/>
<g id="SVGRepo_tracerCarrier" stroke-linecap="round" stroke-linejoin="round"/>
<g id="SVGRepo_iconCarrier"> <g> <g> <path d="M325.611,196.887c-0.012-3.288-2.66-5.96-5.948-5.972h-0.052c-0.08,0-0.156,0.004-0.236,0.004 c-0.204,0.008-0.404,0.024-0.6,0.052l-18.76,2.34l-12.68-14.304c-1.152-1.3-2.788-2.012-4.476-2.012 c-0.532,0-1.064,0.072-1.592,0.216c-2.2,0.608-3.864,2.416-4.284,4.656l-2.612,13.856l-48.92-72.352l34.988-11.108 c2.164-0.688,3.756-2.544,4.1-4.788c0.348-2.248-0.608-4.492-2.464-5.8l-32.708-23.044l0.512-40.24 c0.028-2.28-1.244-4.38-3.28-5.412c-0.852-0.432-1.776-0.644-2.7-0.644c-1.276,0-2.544,0.408-3.604,1.208l-32.12,24.24 l-37.94-12.708c-0.62-0.208-1.264-0.308-1.9-0.308c-1.564,0-3.096,0.616-4.236,1.756c-1.604,1.608-2.16,3.988-1.432,6.14 l12.876,38.052l-23.984,32.4c-1.356,1.832-1.552,4.272-0.508,6.296c1.028,1.992,3.08,3.24,5.316,3.24c0.036,0,0.072,0,0.108,0 l17.424-0.32c-19.812,21.328-40.532,42.772-60.6,63.524c-15.224,15.74-30.88,31.952-45.82,47.772l-0.084-7.556 c-0.024-2.28-1.348-4.352-3.408-5.332c-0.82-0.392-1.696-0.58-2.572-0.58c-1.324,0-2.64,0.44-3.716,1.296l-11.64,9.232 l-14.108-4.352c-0.58-0.18-1.172-0.268-1.764-0.268c-1.616,0-3.188,0.656-4.332,1.86c-1.568,1.648-2.064,4.04-1.28,6.172 l5.092,13.94l-8.576,12.184c-1.312,1.864-1.452,4.308-0.356,6.308c1.052,1.924,3.068,3.116,5.248,3.116 c0.084,0,0.168-0.004,0.252-0.008l14.76-0.624l8.816,11.852c1.14,1.532,2.928,2.408,4.796,2.408c0.356,0,0.72-0.032,1.084-0.1 c2.24-0.412,4.052-2.06,4.672-4.252l4.056-14.336l14.032-4.832c2.148-0.736,3.692-2.632,3.984-4.884 c0.292-2.252-0.716-4.476-2.604-5.74l-11.504-7.696c15.94-16.956,32.876-34.472,49.272-51.432 c20.632-21.336,41.968-43.404,62.308-65.344c0.64-0.688,0.848-1.592,0.724-2.456l15.896-0.292l23.128,32.704 c1.132,1.6,2.96,2.524,4.884,2.524c0.312,0,0.628-0.024,0.94-0.072c2.252-0.36,4.104-1.964,4.776-4.14l10.9-35.26l48.788,72.156 c0.568,0.84,1.484,1.284,2.424,1.3l-16.304,7.176c-2.08,0.916-3.464,2.932-3.564,5.2c-0.1,2.268,1.088,4.4,3.072,5.504 l16.696,9.264l1.928,19.068c0.228,2.268,1.724,4.204,3.86,5c0.68,0.256,1.388,0.376,2.088,0.376c1.5,0,2.976-0.564,4.104-1.628 l13.832-13.048l18.568,4.1c0.432,0.096,0.864,0.14,1.292,0.14c1.792,0,3.516-0.808,4.668-2.244 c1.424-1.776,1.712-4.212,0.744-6.272l-8.132-17.356l9.432-16.268C325.259,199.199,325.611,198.083,325.611,196.887z M56.503,264.107l-16.988,5.848l-4.908,17.348l-10.704-14.392l-17.92,0.756l10.376-14.744l-6.168-16.876l17.116,5.28 l14.108-11.188l0.204,18.004L56.503,264.107z M217.359,119.667l-12.828,41.5l-24.956-35.288l-43.212,0.792l25.844-34.916 l-13.88-41.012l40.928,13.712l34.636-26.14l-0.552,43.388l35.288,24.86L217.359,119.667z M308.467,216.119l9.46,20.184 l-21.656-4.78l-16.132,15.22l-2.24-22.18l-19.432-10.776l20.272-8.928l4.124-21.884l14.772,16.664l21.98-2.744L308.467,216.119z"/> </g> </g> </g>
</svg>